<?xml version="1.0" encoding="UTF-8"?>
<svg width="100%" height="100%" version="1.1" viewBox="100 20 500 500" fill="#d3d3d3" xmlns="http://www.w3.org/2000/svg" xmlns:xlink="http://www.w3.org/1999/xlink">
 <g>
  <path d="m468.54 370.13c2.2148-0.18359 4.4102 0.57031 6.0469 2.0781-7.4805-0.1875-14.246 1.9336-21.348 0.10547 4.1328 11.875 1.375 24.594 2.4414 37.039 0.82812 9.6172 0.30859 20.402 8.9375 27.922 2.5234 2.1992-1.9492 0.38672-1.5078 2.1953v-0.003906c1.8672 4.3281 4.7578 8.1367 8.418 11.105 0.29297-0.074219 0.60938-0.011719 0.85547 0.16797 0.24609 0.17969 0.39844 0.46094 0.41406 0.76172 1.6406 6.6367 8.9609 8.3672 12.047 13.977 1.9688 2.2617 5.3867 2.5352 7.6914 0.61328 1.5117-2.2344 1.043-5.2578-1.0742-6.9375-1.1367-1.5234-5.6484-3.1758-2.1289-5.543 2.582-1.7383 3.6992 2.2734 5.0742 4.0547 1.7891 2.3164 3.2344 4.8945 4.9102 7.4883 1.4844-1.6367 0.35938-2.4805-0.24609-3.4375-0.82031-1.293-3.4023-2.582-1.1367-4.1289v0.007812c0.9375-0.82031 2.1719-1.2148 3.4102-1.0938s2.3711 0.75 3.1289 1.7383c0.054688 0.16406 0.09375 0.33594 0.11719 0.51172 0.67578 2.2539 2.9297 3.6484 5.25 3.2461 2.2422-1.4062 0.15234-3.7891-0.80859-5.8672-2.7969-6.043-6.9961-11.332-12.25-15.43-8.4727-6.7734-9.7539-17.465-13.512-26.777-2.9883-7.4883-4.8125-15.387-5.4102-23.43-0.91406-10.793 0.80469-21.645 5.0117-31.625 4.2969-9.8164 9.668-19.129 16.016-27.762 1.4961-1.875 1.5586-4.5234 0.15234-6.4688-5.8438-11.133-13.156-21.469-18.098-33.07-2.8789-7.7148-4.8164-15.754-5.7617-23.938-0.86719-5.3164-1.7461-10.637-2.8398-15.906-0.66797-1.293-0.24609-2.8828 0.97266-3.6758 1.7969-0.87891 2.418 0.72266 2.9688 2.0156v0.003906c0.57812 1.0742 0.98828 2.2305 1.2109 3.4336 1.207 14.703 7.5586 27.695 12.992 41.09 3.2617 8.0391 8.8203 15.094 10.238 23.898-0.007812 0.51562 0.15625 1.0234 0.47266 1.4375 0.58594 0.28516 1.2461 0.37109 1.8828 0.25781 1.8984-4.875 8.1289 4.0703 9.375-2.9648h0.003906c0.31641-1.3711 1.0508-2.6133 2.0977-3.5547 7.9688-7.2656 7.9883-17.023 8.5195-26.629-0.035157-2.2812 0.074219-4.5625 0.32422-6.832 0.83984-4.5625 1.9062-4.8047 6.1172-1.2383l-0.003906-0.003906c0.44141-4.3711 0.13672-8.7891-0.91016-13.059-0.80469-3.8086-1.1406-7.7031-1.0039-11.594-0.10547-5.0352 1.2305-5.7266 6.4805-3.043h-0.003906c-0.19922-10.32-2.332-20.508-6.2891-30.039-0.78516 8.3828-9.3633 5.5742-12.539 10.594h-0.003906c-1.3242 0.92969-3.0352 1.1172-4.5312 0.49609-0.92578-0.41016-1.9453-0.57812-2.9531-0.48437-5.4883 4.5547-9.3398 2.5781-12.094-3.3242-6.5625 8.3242-7.5977 5.8086-10.891 1.0391-2.457 2.4961-3.457 7.7031-7.5703 6.9141-4.1992-0.80469-2.7617-5.8086-3.7461-9.2539v0.003906c-1.9609 0.86328-4.207 0.79688-6.1172-0.17188-1.4688-1.75-2.1055-4.0547-1.7461-6.3125 0.28906-3.4727-0.66797-5.6992-4.7852-3.5039-1.4844 0.79297-3.7148 1.0898-4.2344-0.57031-2.1055-6.7461-8.5039-12.395-5.2617-20.613 0.73047-1.8516 0.25781-4.3086-2.918-2.6836-1.3906 1.1719-3.2812 1.5547-5.0195 1.0195s-3.0859-1.9219-3.5742-3.6719c-2.8203-4.6211-4.9844-9.6172-6.4258-14.836-0.53125-2.2383-0.42188-4.582 0.3125-6.7617 0.34766-1.0352 0.33984-2.1875 1.8516-1.875 1.3047 0.26953 0.80469 1.2344 0.69531 2.0742l0.003906-0.003906c-0.10547 5.9961 0.98828 11.949 3.2148 17.516 0.28906 1.1797 1.0742 2.1797 2.1523 2.7383 1.5234 0.41016 1.5586-1.4219 2.1445-2.418 1.6055-2.7227 3.4258-5.3281 4.9023-8.1172 0.85547-1.6133 1.8906-2.0039 3.2344-1.0703 1.2695 0.87891 0.80469 1.9609 0.019531 3.1484-2.0859 3.1445-6.1602 4.8789-6.5234 9.2734 0.17969 0.19141 0.41016 0.32422 0.66406 0.39453 8.168-0.92969 8.3086-0.92188 7.7031 7.8867h-0.003906c-0.13672 2.4609 0.14062 4.9297 0.82422 7.3008 1.7266-0.14844 2.3984-3.2656 4.2109-1.9141v-0.003907c1.0938 1.3984 1.1641 3.3398 0.16797 4.8047-1.5703 5.9023-1.2578 6.1875 4.5078 4.7305 2.6523-0.66797 4.0898 0.019531 4.2656 2.8477 0.078125 1.2383 0.13672 2.4766 0.26172 3.707 0.53906 5.2578 1.7969 5.8672 6.0195 2.9375 0.53906-0.37109 1.0938-0.71875 1.7812-1.1719 2.5469 3.6875-0.72266 8.1953 2.3867 11.727l0.003906 0.003906c2.4766-1.9023 4.3242-4.5078 5.3047-7.4727-0.011719-1.082 0.66406-2.0508 1.6836-2.4141 1.2852 0.13281 2.2539 1.2266 2.2344 2.5195-0.11719 1.9414 1.1289 3.7031 2.9961 4.2383 2.2539 0.19922 2.1875-2.4336 3.2109-3.7148 0.37891-1.5039 1.4883-2.7188 2.9531-3.2344 1.4531 0.64453 2.4648 2.0039 2.6641 3.5781 2.3594 5.3164 3.6172 5.543 7.1641 0.70312v0.003906c0.23828-0.65234 0.78906-1.1367 1.4648-1.293 0.67188-0.16016 1.3828 0.03125 1.8828 0.50781 1.6562 1.3984 3.9609 1.7266 5.9414 0.84766 1.9766-0.87891 3.2773-2.8086 3.3516-4.9727-0.31641-1.9219 0.625-3.8359 2.3477-4.75 0.79297 1.8594 1.2891 3.832 1.4766 5.8438 2.4297-1.0039 3.7188-3.6719 2.9883-6.1992-0.32031-0.62109-0.33203-1.3555-0.039063-1.9922 0.29297-0.63281 0.86328-1.0977 1.5469-1.2578 2.0312-0.73047 2.4805 1.2891 2.8281 2.3203h-0.003906c2.9922 8.4023 5.0703 17.098 6.2031 25.941 0.40625 3.7773 0.875 7.5508 1 11.383 0.10938 3.2969-1.4258 4.3086-3.5664 3.1328-5.5156-3.0273-3 2.3281-2.9414 3.0859 0.39062 4.8555 1.6953 9.6562 1.8555 14.504 0.11328 3.4297 2.7344 9.4219-5.3594 7.9531-1.6992-0.30859-0.99219 1.875-1 2.9453-0.33594 6.2773-1.25 12.512-2.7344 18.621-1.9336 4.875-4.3789 9.5312-7.293 13.891-3.3867 7.6914-4.7148 16.125-3.8594 24.484 1.5938 16.664 3.5586 33.312 4.418 50.016 0.007813 17.25 7.5195 33.641 20.586 44.898 3.3711 2.3945 5.418 6.2344 5.5195 10.367-0.039062 1.7305-0.15234 3.7266-2.0156 3.7227-5.1016-0.011719-10.16 3.3242-15.262 0.36328-1.5859-0.92187-2.293-1.7109-2.9883 1.0195-0.41406 2.7656-2.875 4.7539-5.6641 4.5781-1.4258-0.097657-2.2422 0.12891-1.3984 2.0625l-0.003906-0.003907c0.41406 1.1172 0.28125 2.3594-0.35156 3.3633-0.63672 1.0039-1.7031 1.6562-2.8867 1.7578-3.0312 1.418-6.1562 2.6172-9.3555 3.5859-5.0625 0.20703-9.6289 3.1016-14.969 1.8789h-0.003907c-3.1211-0.52344-5.9297-2.2109-7.8594-4.7227-1.6484-2.0508-3.5078-3.9258-5.5391-5.5977-2.707-2.4727-4.5781-4.3828-7.4727 0.63281-3.2852 4.0977-8.625 5.957-13.746 4.7891-19.453-1.9805-39.059-1.9414-58.504 0.11328-9.6719 1.1719-19.457 1.0586-29.098-0.33984-2.9297-0.41406-6.0312 0.48047-8.9922 0.17188h0.003906c-13.102-1.3398-25.934-4.5859-38.098-9.6367-3.1562-4.1562-5.1289-9.0898-5.7188-14.273 0.96484-7.1211 3.4766-13.945 7.3594-19.992 2.332-3.9102 4.3438-8.0039 6.0117-12.238 0.44531-1.3477 0.90625-3.0273 2.7656-2.2266 1.6953 0.73047 1.043 2.0977 0.51172 3.5664-2.4453 6.7734-6.9141 12.465-9.9727 18.914v-0.003906c-1.332 2.8516-2.2852 5.8633-2.8438 8.957-1.3008 6.9023 2.7109 13.699 9.3789 15.898 5.9492 2.4453 12.055 4.4766 18.281 6.0781 13.871 3.8711 27.773 2.582 41.645 3.168 6.5703 0.27734 13.07-2.3438 19.789-2.207 12.285 0.24609 24.617 1.082 36.84 0.27734 5.5156-0.36328 11.016 2.1055 16.473-0.35156h0.007813c2.4141-0.98828 4.25-3.0273 4.9805-5.5391 0.73047-2.5078 0.27734-5.2109-1.2305-7.3477-3.1719-6.1289-5.6836-12.582-7.4883-19.246-2.7344-8.6836-4.125-17.738-4.1172-26.844 0.51953-5.2461 0.65234-10.523 0.40234-15.793-0.10547-4.0391-0.74609-8.0469-1.9102-11.918-3.4844-8.7109-7.5195-17.195-12.082-25.395-5.3438-9.5586-13.953-10.527-22.961-9.9453v-0.003907c-4.0352-0.42187-8.1055-0.45312-12.148-0.10156 3.4648-5.9766 27.133-3.625 35.559 2.9883-7.4453-13.855-6.4766-29.543-9.8438-44.301v0.003906c-2.1562-10.207-2.5781-20.699-1.25-31.043 0.14844-1.3008 0.066406-2.6836 1.832-2.5156 1.8164 0.17578 1.5352 1.8828 1.2852 2.8789-3.8398 15.438 1.6523 30.152 3.3398 45.164 2.2891 11.867 5.3906 23.562 9.2891 35 0.31641 0.8125 0.6875 1.6094 1.1016 2.3789 1.543 2.3164 2.2656 5.082 2.0508 7.8555-0.65625 3.9375 4.3516 7.1836 5.3164 11.555 0.21484 0.98438 1.2852 0.68359 2.1562 0.16016 4.3906-1.6328 8.9727-2.6914 13.633-3.1523 1.1055-0.33203 3.1016-1.0898 3.5898 0.81641v-0.003906c-0.50391 1.1953-1.2891 2.2461-2.2891 3.0664zm70.223 78.211c-1.3086-5.082-4.1836-9.6211-8.2188-12.977-5.9688-5.4375-10.508-12.258-13.215-19.867-4.832-14.594-4.1289-29.867-5.832-44.828-1.3789-12.121-1.8008-24.34-3.3281-36.465 0.066406-1.9531-1.2734-3.6758-3.1875-4.082-1.8125-0.42188-3.6406 0.64844-4.1641 2.4375-1.8047 2.8008-3.7852 5.4844-5.9297 8.0312-5.9688 8.4023-11.289 17.582-8.7891 28.133 1.9258 8.1289 4.8828 16.02 6.1953 24.379v-0.003907c1.3438 7.4102 3.0625 14.75 5.1445 21.984 3.3047 12.562 5.3086 25.992 15.664 35.613 1.0859 1.8203 2.9648 3.0195 5.0742 3.2383 1.6172-1.1328 2.5195-3.0312 2.3789-4.9961 0.39453-3.0195 3.0781-4.6992 4.6328-2.8164 4.2031 5.0898 8.9336 1.1367 13.574 2.2188zm-36.664-8.125c-9.8398-23.031-11.137-46.891-18.711-69.805-6.207 17.48 4.4727 58.297 18.711 69.805z"/>
  <path d="m298.11 412.82c-2.1797 2.6797-3.5391 5.9336-3.9023 9.3711-0.36719 3.4336 0.27344 6.9023 1.8438 9.9805 0.22656 0.63672 1.5195 1.4766 0.26172 2.0898-0.48438 0.22656-1.0469 0.22266-1.5273-0.011719-0.48047-0.23047-0.83203-0.66797-0.96094-1.1875-2.0352-3.3984-2.457-7.5234-1.1484-11.262-2.7773 1.8945-4.7109 3.4609-6.8594 4.6406-8.332 4.5742-8.8594 7.918-2.2617 15.438h-0.003907c-0.41797 0.47266-1.0312 0.72266-1.6562 0.67578-0.62891-0.050782-1.1992-0.38672-1.5391-0.91797-1.2188-2.0195-3.7461-2.8164-5.9023-1.8672-1.9805 0.89844-2.875-1.5703-3.8594-2.8984-2.7031-3.6289-4.7305-2.7188-6.4336 0.80078-0.60938 1.2539-1 2.6133-1.5273 3.9102-1.7461 4.2852-4.3555 4.9883-6.9805 1.2188-1.3281-1.9062-4.9648-3.9062-2.2539-7.5 0.57422-0.76172 0.66016-2.2812-1.5977-2.1172-6.7383 0.48438-13.504 0.65625-20.258 0.91406-4.5234 0.17188-2.918 3.8398-4.3438 7.543 5.0234-4.7148 8.4336-3.6992 11.605 0.46875v-0.003906c1.9922 1.5664 4.4297 2.4609 6.9609 2.5586-2.9648 2.3008-7.1719 2.0625-9.8594-0.55469-1.8359-1.5078-2.9961-4.4414-5.8125-1.2852-0.99219 0.92188-1.4688 2.2773-1.2695 3.6172 0.19531 1.3438 1.0391 2.5 2.2539 3.1016 0.34766 0.40625 0.42969 0.97656 0.20312 1.4609-5.082-4.1953-12.121-5.3945-15.875-11.426-2.8945 1.3945-2.5977 5.3867-5.4336 6.332-3.6602 1.2227-4.0898-3.1172-6.6211-4.5664-1.8633 3.8633-1.4805 8.4336 0.99219 11.938 1.5508 3.082 4.4531 1.2266 6.6641 1.1719 12.266-0.30859 24.414 1.6719 36.652 1.7305 1.7617 0.007812 3.5273 0.078125 5.2812-0.027344 15.531-0.94531 31.059-1.9102 46.586-2.8945 3.9805-0.39844 7.9883 0.46094 11.453 2.457-3.9414 0.45703-7.9062 0.68359-11.875 0.66797-9.9531-0.25391-19.91 0.28516-29.777 1.6055-9.5547 1.1133-19.188 1.4141-28.793 0.90625-11.465-1.5156-23.031-2.1523-34.594-1.9062-11.543 0.86719-23.074 0.58984-34.641 0.47266-11.336-0.11719-22.676 2.2812-34.043 2.5977v-0.003906c-12.238 0.62109-24.418-2.0781-35.25-7.8086-2.6602-0.92969-4.4766-3.3906-4.5898-6.2031-0.10938-2.8125 1.5117-5.4102 4.0859-6.543 12.035-6.3711 25.465-9.6406 39.078-9.5117 15.141-0.63672 30.207 0.875 45.328 0.66016 15.438-0.21875 30.879 0.38672 46.32 1.0547v-0.003906c8.0469 0.97266 16.203-0.38281 23.5-3.9062 2.2461-1.2852 2.5273 0.89844 3.7695 1.3047 8.168 2.6758 27.473-4.207 31.926-11.691v-0.003906c2.6719-3.1445 3.5938-7.418 2.457-11.387-0.35156-0.85156-0.21094-1.4961 0.38672-1.6797 5.1523-1.5703 3.543-6.3438 3.3711-9.2188l-0.003906 0.003906c-0.20312-8.7773 0.40625-17.555 1.8203-26.219 0.52344-10.984 1.6953-21.93 3.5078-32.777 3.4453-13.984 5.6445-28.199 10.52-41.965v-0.003906c5.0898-13.34 11.457-26.16 19.008-38.281 2.4688-3.6484 5.4805-6.9023 8.9297-9.6484 10.621-10.883 22.297-20.688 34.855-29.266 7.7109-4.6328 16.434-7.5586 24.496-11.652 6.3789-2.8242 11.758-7.5039 15.441-13.426 7.8672-13.816 13.387-28.926 22.828-41.855 5.8828-8.0508 11.285-16.68 21.137-20.777 1.8047-0.75 3.957-2.3086 4.8984 0.20312 0.92578 2.4727-1.9883 1.5234-3.1523 2.0703-7.1992 3.3789-11.508 10.074-17.371 14.98l-0.003907 0.003907c-0.20703 0.27734-0.35547 0.59375-0.4375 0.92969 6.3008 2.7383 1.707 8.4375 3.2344 12.621 1.8242 5 3.7305 9.9648 5.6523 14.938-6.7539-6.4102-8.5508-14.902-9.875-24.574l0.003906 0.003907c-4.7031 6.2773-8.8203 12.973-12.293 20.008-2.7734 6.3867-5.9531 12.594-9.5156 18.582-2.1953 3.3789-5.9062 7.6875 0.26172 11.461l0.003907-0.003907c0.59766 1.2539 0.82812 2.6484 0.66797 4.0273 0.24219 4.957 2.582 9.5781 6.4336 12.711 2.4023-4.457 0.49219-9.1445 1.6211-13.465 1.207-4.6172-2.6172-8.7852-0.91016-13.785l0.003906-0.003906c2.207 2.4922 3.2578 5.7969 2.8984 9.1055-0.79297 5.9453 0.56641 11.879-0.65234 17.785 0.17969 2.668-1.2344 5.1914-3.6016 6.4297-3.0859 0.73438-4.2773-2.1328-5.1914-4.7344-1.7969-5.1016-3.625-10.199-5.668-15.203-0.60547-1.4805-0.42578-4.457-3.2734-3.5938v-0.003906c-2.5859 0.82812-4.7383 2.6367-6.0039 5.0391 2.9766 5.1406-0.92188 10.789 1.75 15.73 1.8477 3.4219 1.418 8.0977 5.6406 10.219 0.70312 0.35547 1.1367 0.76953 0.49609 1.582-0.90625 1.1445-1.5156 0.16406-2.1367-0.30078h-0.003906c-4.7695-4.0195-7.582-9.8984-7.7227-16.137-1.1055-9.0938-0.87891-9.0312-9.1602-5.2695h0.003906c-3.5391 1.8672-7.1953 3.5039-10.945 4.8945-2.7266 0.82422-5.2578 2.207-7.4219 4.0586 1.5977 4.7227-0.43359 9.9375 2.1562 14.402 1.4141 1.8438 2.2578 4.0625 2.4219 6.3828-3.8945-2.3047-6.1562-7.6562-7.7578-17.914-5.8281-0.21484-8.5391 4.707-12.316 7.707-9.4375 7.5039-10.555 12.453-6.0195 24.008 1.6875 4.3008 3.5195 8.5508 5.5586 13.484-2.8047-1.7227-4.9023-4.3867-5.9219-7.5156-2.3242-4.8828-4.0586-10.027-5.1758-15.32-0.25391-1.8594-0.87891-2.668-2.6719-1.1719-6.125 4.5938-11.125 10.516-14.621 17.328l0.17188-0.19922c-5.2539 3.8047-6.5625 10.129-9.4336 15.359-10.008 18.227-14.297 38.418-18.633 58.488l-0.003907-0.007812c-2.2578 13.672-3.6094 27.473-4.0469 41.32-0.25391 3.1445-0.42188 6.3086-0.91406 9.418-0.89844 4.9609-0.14844 10.074 2.1289 14.57 2.2812 4.4961 5.9648 8.1211 10.492 10.328-1.207-5.3398-3.8164-10.266-7.5508-14.273-1.5156-1.1914-2.4414-2.9766-2.5508-4.9023-0.10938-1.9258 0.61328-3.8008 1.9805-5.1602 2.168-2.8945 3.707 0.19922 4.4258 1.8047 1.5547 3.3359 3.7578 6.3281 6.4766 8.8086-2.4531-0.30469-4.7383-1.4062-6.5078-3.1328 0.61328 5.0156 2.3086 9.8398 4.9688 14.137 1.2031 1.3828 1.2773 3.4141 0.17969 4.8828-1.6133 0.86328-3.6172 0.40234-4.6953-1.0781-3.75-2.5703-6.9062-5.9141-9.2539-9.8047-0.9375 4.6055-4.2695 7.3281-3.3281 11.473zm-149.95 30.367c1.8281-1.5078 3.1641-3.5273 3.8359-5.7969 0.47656-1.5781 1.9023-2.6758 3.5508-2.7344 1.3164 0.46875 2.293 1.5898 2.5781 2.957 0.22656 1.6992 1.2227 3.1992 2.6992 4.0703 1.1055 0.26953 2.8125-1.2305 3.2305 0.86719-0.011719 0.84375-0.46484 1.6172-1.1914 2.043-1.5898 0.91016-3.5977 0.59766-4.8359-0.75-0.99219-1.4414-1.9023-2.9414-3.0234-4.6875-2.0547 3.4219-3.3047 7.2656-3.6602 11.242-0.63672 4.3555 0.38672 6.0742 5.1992 5.5078l0.003906 0.003906c6.8477-0.78906 13.734-1.2031 20.625-1.2344 8.3555-0.050781 16.715 0.44531 26.191 0.73828-5.2656-5.668-4.1055-11.777-3.9062-17.605-2.457 0.48047-4.4141 2.3438-5.0156 4.7773-1.4336 2.5156-2.168 6.7578-5.4062 6.3828-3.6875-0.42969-2.7305-4.6523-3.0625-7.5117-0.019531-0.17578-0.007812-0.35547-0.039062-0.52734-0.19141-0.96094 0.19922-2.4062-1.2305-2.4883v-0.007812c-0.82031 0.22656-1.5273 0.75781-1.9727 1.4883-3.5625 3.3633-4.3242 8.7461-1.8398 12.973-1.3867 0.46875-2.6094 0.60547-2.832-0.29688-1.4648-5.8906-6.8711-10.062-7.2383-16.328-0.17969-3.0742-1.4219-3.4844-4.2422-3.5273-9.9648-0.14844-19.945-0.44141-29.879-1.1797-9.8242-0.73047-13.027 2.457-11.109 11.996h0.003906c0.16406 0.44922 0.39062 0.875 0.67188 1.2617 2.8086-1.1875 5.1797-3.2266 6.7773-5.8281 1.8398-2.3594 4.8906-3.4258 7.8008-2.7227-1.2656 0.63281-2.1992 1.7852-2.5547 3.1562-0.35547 1.3711-0.10547 2.832 0.69141 4.0039 2.6914-1.5352 1.3945-6.5781 4.7109-6.5938 2.8008-0.011719 2.9883 3.9102 4.4688 6.3516zm-26.719-4.0664-0.003906-0.003906c-1.668 1.543-2.875 3.5234-3.4844 5.7109-4.0156 8.2734-3.9492 8.418 4.1875 10.824 7.9102 2.4805 16.316 2.9375 24.453 1.3281 2.0312-0.41406 1.7266-0.97656 2.0352-2.5 1.1406-5.6133-3.875-8.6367-4.6836-13.926-4.8438 8.5547-5.4766 8.8398-8.6641 4.5h-0.003906c-1.1367 2.0039-1.4258 4.375-0.80469 6.5898-0.035156 0.73828 1.8164 1.918-0.33594 2.2305-1.4688 0.21484-1.6758-0.97656-1.7617-2.0586-0.16016-1.9961-0.25781-4-0.41016-6.418-8.043 5.2539-8.043 5.2539-10.527-6.2812zm102.92 4.9453c0.20703-2.6406 0.29688-4.9805 0.59766-7.2969 0.34766-2.6484-0.76953-3.1562-3.2617-3.1641-13.914-0.050781-27.824-0.32812-41.738-0.48438-6.8398-0.078125-7.8711 2-4.1797 8.4844 0.45703-0.74609 0.90234-1.4336 1.3164-2.1406h-0.003906c1.75-2.9297 5-4.625 8.4023-4.3945 3.5938 0.10547 1.8477 4.3828 3.5664 6.2891 0.082031 1.3359 0.55078 2.6133 1.3477 3.6836 2.25-4.0234 3.3828-8.5234 8.5469-10.07 6.9258-2.0742 6.6836 4.9336 10.703 7.7227v0.003907c1.0078-1.1562 1.8672-2.4375 2.5547-3.8086 1.8359-5.0938 4.1094-2.8164 6.2656-0.44141 1.6172 2.1992 3.6094 4.0977 5.8828 5.6133zm-101.86-9.6719v-0.003906c-5.4375 0.63281-10.684 2.3984-15.402 5.1758-8.1797 5.2852-7.9648 7.4336 0.82031 11.848 0.48828 0.18359 0.94141 0.44531 1.3477 0.76563 4.2852 4.3125 4.0742 0.5625 4.8125-2.4648v0.003906c0.64062-6.0312 3.6758-11.555 8.4219-15.328zm137.06 6.9102c1.5938-3.3633 4.75-5.2539 4.0195-9.0195-8.0195 1.4062-8.0195 1.4062-4.0234 9.0117zm9.8438-10.852c1.6719 1.8086 2.6055 3.0117 3.7383 3.9883 0.99219 0.85938 0.91016 3.6367 2.9492 2.4492 1.9297-1.1211 0.58594-2.9766-0.023437-4.6055-1.3672-3.6523-3.8828-1.0703-6.6641-1.832z"/>
  <path d="m471.95 208.11c4.5547-8.7422 14.258-10.754 20.992-16.754-9.9414 2.4609-17.914 10.215-28.707 10.305 13.035-9.2148 28.891-12.02 42.973-19.047v0.003906c-15.477-0.63281-30.871 2.4961-44.871 9.1133 0.046875-2.0703 1.5234-3.8359 3.5547-4.25 12.457-4.1211 25.332-6.8594 38.391-8.1562 2.2812-0.32422 4.5664 0.55859 6.0391 2.332 2.9414 4.0273 7.3906 6.6836 12.328 7.3672 4.9375 0.68359 9.9414-0.66797 13.863-3.7422 2.8828-1.8867 7.0195-2.1758 7.3203-6.9883 0.19141-0.61328 0.73437-1.0469 1.375-1.1016 0.64062-0.058594 1.25 0.27734 1.5469 0.84766 1.9062 4.1875 2.7969 1.1641 3.8711-0.39453v-0.003906c2.2227-4.3047 2.4883-9.3594 0.72266-13.871-2.0273-9.8008-3.3984-10.68-14.32-12.66-2.1406-0.38672-5.2031 0.875-6.1953-1.5117v-0.003906c-0.74609-3.1289 0.042968-6.4297 2.1289-8.8828 0.83594-1.3398 1.9648-2.4727 3.3008-3.3125 0.89453-0.43359 1.5625-1.2227 1.8438-2.1719 0.28125-0.95312 0.14453-1.9805-0.37109-2.8281-5.125-5.2109-0.60938-10.879-1.2656-16.238-0.80469-6.5469 3.2734-11.891 5.168-18.477-4.1328 2.6992-7.8086 6.043-10.891 9.9023-2.2773 2.1836-3.9883 4.8594-6.3281 7.0547-3.5039 3.2891-3.2969 3.5039-7.2188 0.99609-4.1055 8.8984-4.9688 9.2617-9.6016 3.7734-1.2227 1.7852-1.5703 5.0039-3.9961 4.7656-2.6211-0.25391-1.5859-3.8281-3.1914-5.5508v-0.003906c-1.4492 2.3984-2.1641 5.168-2.0508 7.9688-0.14844 1.4766-0.074219 3.207-1.6992 3.4297-2.3164 0.32031-2.2422-2.1719-2.3711-3.375-0.68359-6.3789-1.043-12.793-1.4727-19.199 0.17188-3.3516-0.58984-6.6836-2.2031-9.6289-4.8711 3.9805-7.5391 10.059-7.168 16.34 1.1836 5.9453 1.0508 12.074-0.38672 17.965-0.99219 3.0039-3.8867 3.1133-4.3984 5.8086-3.4648-5.9062-4.8828-12.793-4.0352-19.59 2.0469-6.5312 4.5195-12.918 7.4062-19.125-4.2852 1.3555-7.4297 5.0195-8.1289 9.4609-3.4023 8.8203-4.3359 18.402-2.707 27.715 0.30078 1.3477 1.332 3.5-1.0938 3.8594-2.3672 0.35547-1.8906-2.0391-2.3594-3.3984-2.5117-7.3477 0.3125-14.41 1.1094-21.602l0.003906 0.003906c1.4453-9.6758 7.0117-18.254 15.258-23.516 2.0273-1.8828 5.0078-2.3125 7.4805-1.0781 2.4766 1.2344 3.9258 3.875 3.6367 6.6289 0.26172 4.0469 0.63281 8.0898 0.91797 12.137-0.28516 1.2422 0.29688 2.5234 1.418 3.1289 1.0977 0.027344 2.0625-0.71484 2.3125-1.7812 2.3398-3.9766 4.043-3.0352 4.832 0.78516 0.40625 1.9688 1.3398 1.9062 2.25 1.0117 2.5664-2.5234 6.2891-0.38281 8.9219-2.4336h-0.003907c0.45313-0.29297 1.0234-0.34766 1.5234-0.14844 5.5078 3.6836 7.2695-1.125 10.246-4.1133 5.4375-6.168 11.934-11.312 19.184-15.188 1.4102-0.63281 2.8906-1.0898 4.4102-1.3711 1.7695-0.35938 3.0938 1.25 1.6797 2.2578-6.0781 4.3281-4.5664 11.375-6.2305 17.09v0.003906c-1.8672 6.5508-3.3477 13.211-4.4453 19.934-0.65234 3.8594-3.9961 9.1719 3.332 10.984 0.80078 0.69531 1.2695 1.6953 1.2852 2.7578 0.57812 7.1094 5.8828 12.137 8.0117 18.531 0.8125 2.4414 1.8477 1.8438 3.4922 0.92188 11.598-5.6445 23.648-10.316 36.023-13.957 2.6172-0.94141 5.5117 0.03125 8.1992-1.1289h-0.003906c-16.5 4.7461-32.242 11.82-46.746 21.016 13.906-6.5898 29.043-10.168 44.426-10.512-12.207 2.1055-24.145 5.5508-35.59 10.281-4.7188 0.85156-8.4922 4.4062-9.6133 9.0703-0.40234 2.1133-1.6055 3.9883-3.3594 5.2305-5.3867 4.8984-9.082 11.375-10.562 18.504-1.1523 3.5117-4.8242 4.3438-6.4922 7.2969-2.1406 3.7891-5.6016 0.78125-8.3789 1.1797-6.2852 0.90625-12.582 1.1992-18.879 1.6641l0.003907 0.003906c-3.9102 0.35156-7.75-1.1875-10.332-4.1406-0.64844-0.70703-1.957-1.8711-0.47266-3.1406 1.5508-1.3281 1.8672 0.22656 2.7422 1.0156 3.25 2.9297 6.6836 5.4414 10.957 1.5352 0.34766-0.375 0.8125-0.62109 1.3203-0.70313 6.418 5.0117 13.754-3.1641 20.195 1.3945 0.47266 0.082031 0.96094 0.027344 1.4023-0.15625-0.48828-4.7305 6.3398-5.3398 5.6758-10.34-0.47656-3.5781 4.2266-5.1523 4.0977-9.0391-3.293-0.0625-6.4844 1.1445-8.9102 3.3711-3.3398 2.4062-7.6562 2.9961-11.52 1.5781-3.8125-0.39844-7.4805-1.6719-10.711-3.7305-0.76562-1.0117-2.1445-1.3281-3.2773-0.75391-10.637 6.2773-22.863 9.6055-32.609 17.551-1.3281 1.082-2.668 2.1484-4.0039 3.2227z"/>
  <path d="m365.11 436.95c-6.8555-1.0586-12.578-1.9922-15.102-8.4062-0.30078-0.76172-1.2422-1.2812-0.28125-2.2031h-0.003907c0.23828-0.25781 0.57813-0.39062 0.92578-0.36328 0.34375 0.023437 0.66016 0.21094 0.85547 0.5 5.7812 5.1367 13.465 4.1484 20.188 6.25v-0.003907c3.3008 1.0469 6.6641 1.9062 10.062 2.5742 4.1367 0.79688 5.207 2.0898 0.86719 4.8398l16.332 8.1992c-11.66-4.7031-23.109-9.707-36.062-8.0195 4.7383 2.4727 10.602 2.0156 16.355 4.8711-4.5 3.4336-9.5078 2.375-13.84 3.6406-4.7227 1.3789-9.3359-0.96875-14.988 0.62891v0.003906c5.4727 1.1016 11.039 1.6836 16.621 1.7383 3.1992 0.0625 3.1953 0.09375 1.8086 3.0625-0.67578 1.4492-0.51953 1.7266 1.3711 1.9609v0.003907c2.2617-0.31641 4.5664-0.15625 6.7617 0.47266-3.7695 0.87109-7.6875 0.84766-11.445-0.074219-2.7109-0.66797-5.5117-0.89453-8.2969-0.67578-2-0.015625-5.2422 2.2305-5.6406-2.4961h-0.003906c-1.2109-0.98828-2.7969-1.3906-4.332-1.1133-3.1953-0.44141-6.7539 0.10156-7.4844-5.0703-0.27734-1.957-4.4688-2.6445-7.1133-3.3164-1.2812-0.1875-2.5781-0.25391-3.875-0.19531 3.3594-2.9141 5.5039-3.4336 11.199 0.35156v0.003907c5.2266 2.8711 11.219 4.0312 17.137 3.3203 5.4648 0.011719 10.93-0.60547 17.707-1.0312-8.875-3.7383-18.109-2.5742-25.988-8.2148 5.7227-2.3164 10.664 0.91016 16.266-1.2383z"/>
  <path d="m317.45 316.42c3.2891 4.4414 5.1992 9.4453 8.2344 13.891v0.003906c2.4727 4.582 5.8516 8.6133 9.9297 11.848-5.8203-0.60938-8.5977-5.4961-12.605-9.6719 1.043 4.9258 2.5195 9.7461 4.4141 14.406 1.4961 1.8711 1.3086 4.5781-0.42969 6.2266-2.3594 1.4102-3.4688-1.6875-4.8477-2.9531v0.003906c-0.96484-1.4414-2.3633-2.5352-3.9922-3.1211 1.8594 10.59 7.3516 20.203 15.535 27.176-7.6406-1.8438-14.484-6.0938-19.523-12.125-1.5977-2.0508-3.3477-3.9844-5.2266-5.7852-1.957-1.8594-5.0195-4.0391-1.5977-7.4102 0.47266-0.96875 0.39844-2.1133-0.19531-3.0117-0.42188-1.0898-0.29688-2.3125 0.33594-3.293 0.63281-0.98047 1.6953-1.5977 2.8594-1.6641 1.6836 0.09375 3.1992-1.0078 3.6289-2.6406 0.85156-2.4219 2.4258-0.097656 3.3047 0.99609 2.6719 3.3242 5.2656 6.7148 8.1992 9.875-1.9922-11.148-8.6914-21.031-8.0234-32.75zm2.7422 42.922c-1.75-4.9883-3.2109-9.4102-4.8789-13.75-0.5-1.3008 0.51562-4.2422-2.5352-3.375-1.0469 0.32422-1.8633 1.1562-2.168 2.207-0.30469 1.0547-0.066406 2.1914 0.64453 3.0273 2.1016 4.5547 5.1484 8.6055 8.9375 11.891z"/>
  <path d="m353.96 365.01c2.5781 4.918 7.7656 6.7695 11.754 10.207h0.003906c-4.8828-1.25-9.332-3.7969-12.887-7.3672-3.5547-3.5703-6.082-8.0312-7.3125-12.918-0.074219-0.50391-0.070313-1.0156 0.007813-1.5156 5.3047-0.72656 2.7539-4.2695 2.7539-7.0898-0.003906-2.3672 1.5195-2.6562 3.6758-1.7812h-0.003906c3.5156 1.4219 7.1484 2.5273 10.859 3.3008-5.5352-3.6133-9.2422-9.2539-15.012-12.516-2.2734-1.2852-6.1094-1.7852-3.5625-6.3828 0.88281-1.5938-2.4023-2.457-3.375-3.9922-0.56641-0.89844-2.2812-1.6016-0.82812-3.0156l0.003906 0.003906c0.43359-0.45312 1.0469-0.69531 1.6719-0.65625 0.62891 0.042969 1.207 0.35938 1.5781 0.86719 2.2188 2.0156 4.7422 3.6641 7.4727 4.8945 1.332 0.64062 3.5156 0.5625 3.6094 2.5703 0.10156 2.1641-2.1875 2.207-3.7109 3.0508l0.003906-0.003906c2.5938 2.1055 5.5547 3.7031 8.7383 4.7188 2.7539 1.5977 5.6523 2.9453 8.9453 4.6367-3.3242 1.3047-5.3242-2.6406-8.0078-0.72266 1.793 3.8398 6.8867 4.418 8.6797 8.4492 0.40234 0.90625 1.6133 1.5664 0.71484 2.707l-0.003907-0.003906c-0.40625 0.47266-1 0.75-1.625 0.75781-0.62109 0.007812-1.2188-0.25391-1.6406-0.71484-4.5859-2.7344-9.5156-4.8398-14.66-6.2695-0.80859 4.4844 1.668 8.9141 5.9141 10.566 2.4062 1.5664 6.9219 2.1992 5.9688 5.5859-1.0156 3.6172-5.293 2.6953-8.5195 2.3359h0.003907c-0.41797 0.039062-0.82422 0.13672-1.2109 0.29688zm-4.3086-9.7773c1.0469 6.5352 4.6836 8.7422 12.293 7.5078-4.25-2.5977-8.1172-4.957-12.293-7.5078z"/>
  <path d="m512.41 160.44c0.52344 1.2422 2.6133 0.11719 1.8516 2.4688-6.0781-2.5547-9.6562-8.2344-14.934-11.648-1.3906-0.89844-0.79297-2.457 0.27734-3.6836 9.5039-10.941 20.535-4.3906 25.328 4.5117 1.5156 2.8125-3.5938 7.7812-8.0312 8.0664-1.4023 0.09375-2.8086 0.17969-4.4922 0.28516z"/>
  <path d="m334.06 260.95 2.7305-1.3984c0.44531 3 4.7695 3.0547 4.8555 6.1992v-0.003906c0.80859 7.0352 2.8164 13.875 5.9375 20.23-0.44922-4.9492-1.2773-9.8594-2.4688-14.688-0.94922-2.9922-1.2109-6.0586-2.0664-9.0234-0.29297-1.0234-2.6836-2.4102-0.12109-3.3477 1.7227-0.62891 2.3711 1.0938 2.9727 2.3281 2.7266 5.6094 5.3984 11.246 8.1133 16.863 0.28125 0.47656 0.60547 0.92578 0.96484 1.3477 1.4922-0.70703-0.29297-2.7773 1.7539-3.5 0.84375 0.85547 1.2852 2.0234 1.2148 3.2227-0.070313 1.1992-0.64453 2.3086-1.582 3.0586-2.6797 1.793-3.5039-1.5469-4.5898-2.957-2.2812-2.9648-2.0859-7.2617-5.082-10.227-0.42969 7.7461 3.9297 14.68 2.9375 23.223-9.8711-7.4531-15.59-19.168-15.395-31.539z"/>
  <path d="m370.28 394.4c0.30078 5.4648-1.5898 6.8125-7.043 6.125-3.2773-0.12109-6.2891-1.8398-8.0586-4.6055-1.0742-2.1133-3.2812-3.4062-5.6484-3.3086-0.90625 0.10938-1.8086-0.25-2.3984-0.95312-0.58594-0.70312-0.78125-1.6523-0.51562-2.5312 2.0469-4.582 6.9453-7.1914 11.891-6.332 1.2773 0.85156 2.6953 1.4766 4.1836 1.8516 4.3438 1.3086 7.3906 5.2188 7.5898 9.7539z"/>
  <path d="m333.34 299.73c-1.0195-7.6094-4.2148-14.008-3.8828-21.109 1.5977 3.3477 4.7656 5.8438 3.6328 10.496v-0.003906c-0.16016 2.8164 0.42578 5.625 1.6992 8.1445 2.0352 2.8555 2 6.6992-0.089844 9.5195-1.5859 2.0273 2.6016 5.0078 4.3008 7.4375 1.7461 1.457 3.0742 3.3516 3.8438 5.4922-1.7812-0.78125-3.3516-1.9766-4.582-3.4844-1.1445-0.65234-2.0195-6.0742-4.4062-0.61328-0.53516 1.2227-2.2227-0.45312-2.8047-1.3945l0.003906 0.003906c-4.4688-6.6016-7.7344-13.938-9.6445-21.676-0.71094-2.125 0.27734-4.4492 2.3008-5.4141 2.3711-0.86328 2.2969 1.9102 3.1797 3.2539v0.003906c1.6211 3.4492 3.8008 6.6055 6.4492 9.3438z"/>
  <path d="m515.75 261.44c1.3672 1.5742 4.5977-1.3242 4.5547 1.8555-0.027344 1.9883-2.6328 1.7422-4.3594 1.9648h-0.003907c-4.8516 0.43359-9.6133 1.5898-14.121 3.4336-3.0586 0.56641-6.207 0.44141-9.207-0.37109 2.0703-1.8555 4.6055-3.1172 7.3359-3.6445-3.9922-1.332-6.9531 1.6523-10.34 1.1719h0.003907c-2.2109-1.2852-3.707-3.5156-4.0586-6.0508 0.066406-0.34766 0.28516-0.64453 0.59375-0.8125 0.3125-0.17188 0.67969-0.19141 1.0078-0.054687 9.3984 3.8945 18.262 0.24609 27.238-1.8828h-0.003907c0.49219-0.1875 1.0117-0.28125 1.5391-0.28125 1.418 0.22266 3.5391-1.2773 4.1094 0.80078 0.41797 1.5117-1.5859 1.9648-2.8203 2.5898-0.54297 0.36328-1.0352 0.79297-1.4688 1.2812z"/>
  <path d="m457.86 337.59c-3.5273-0.39453-6.7344-0.70703-9.9297-1.1328-0.69141 0.035156-1.3594-0.24219-1.8242-0.75391-0.46094-0.51562-0.66797-1.207-0.5625-1.8906 0-5.6406-0.28125-5.1875 5.1406-3.3672 4.2148 1.2656 8.6641 1.5586 13.008 0.85547 2.0547-0.27344 4.1406-0.28516 6.707-0.44531-1.5586 3.3359-4.8242 2.9023-8.2539 4.8594l14.785-0.92188c-4.1094 5-10.465 2.9961-15.195 5.6641 2.332 1.3086 5.043 1.7773 7.6797 1.3242-7.1172 1.6289-14.551 1.1289-21.387-1.4297 2.8477-2.1328 7.0234 0.52344 9.832-2.7617z"/>
  <path d="m436.52 233.18c0.51953 3.2461 2.875 5.8906 6.0352 6.7891 1.4883 0.37891 3.4688 1.1094 2.8008 2.8906-1 2.668-2.9258 0.47656-4.3828 0.12109-2.9414-0.72266-4.9297-4.0586-9.0156-3.1562 2.1992 2.1562 4.1328 4.0508 6.0703 5.9492-4.043-1.0742-7.7773-3.0898-10.891-5.8828-1.6289-0.77734-2.4844-2.5938-2.0547-4.3477 1.1367-2.668 2.8945-0.51562 4.4023-0.12109 1.1641 0.30859 2.3398 0.5625 3.5234 0.84375v0.003906c0.16406-0.25781 0.27344-0.55078 0.31641-0.85547-0.28516-2.4492-3.4883-5.2578-1.0586-7.0781 2.3672-1.7695 3.8242 2.1992 5.9336 3.1992 0.75391 0.35547 1.5469 0.63672 2.8594 1.1719-1.1523-2.8516-2.0508-5.2227-3.0742-7.5391l0.003906 0.003907c-0.48828-0.77344-0.30469-1.793 0.42188-2.3516 1.0312-0.77344 1.5977 0.18359 1.9648 0.89844 2.0859 4.8359 5.1328 9.1953 8.957 12.816 0.82422 0.6875 0.45703 1.5273-0.17969 2.293h-0.003907c-0.39453 0.48438-0.98047 0.77734-1.6055 0.80859-0.62891 0.027344-1.2383-0.20703-1.6797-0.65625-3.1289-1.9102-6.2305-3.8633-9.3438-5.8008z"/>
  <path d="m396.56 270.61 3.1953 9.0898c-2.8906-2.6641-5.0664-6.0156-6.3242-9.7383-0.83594-5.4336 1.0117-6.8398 6.125-4.9023 1.8867 1.1055 4.0352 1.6758 6.2188 1.6523-2.1367-1.8594-3.6953-3.293-5.3359-4.6133-1.082-0.87109-1.8516-1.8906-0.79297-3.0469 0.39453-0.36328 0.92578-0.54688 1.4609-0.50781 0.53516 0.039062 1.0312 0.29297 1.375 0.71094 3.9336 3.4688 8.1797 6.5664 12.691 9.25 1.582 1.0195 1.4453 2.2773-0.46875 3.0312l-0.003906-0.003906c-5.3594 2.8555-11.828 2.6523-17-0.53516-0.37109-0.15625-0.75-0.28906-1.1406-0.38672z"/>
  <path d="m473.55 175.08c-0.88281-1.8906 3.5703-2.4922 0.089843-4.625-2.168-1.3281 1.0938-2.8008 1.1602-4.6914-3.5859 0.67578-4.2109 5.8203-8.8125 5.6641h-0.003907c4.7109-6.4648 10.336-12.211 16.695-17.062 0.68359-0.83984 1.8242-1.1562 2.8438-0.78516 0.83594 0.71484 0.97656 1.9609 0.3125 2.8438-0.875 2.082-3.0625 4.3594 0.66406 5.9766v-0.003907c0.074219 0.32812 0.070313 0.66406-0.011718 0.98828-2.7539 5.3398-7.3516 9.4961-12.938 11.695z"/>
  <path d="m502.89 293.64c4.0664-0.66016 8.2383-0.30078 12.133 1.0508-1.3711 3.0703-4.9062 4.5312-8.0469 3.3242-2.918-0.89844-5.8203-1.3906-8.7539-2.0117-1.4375 0.15234-2.7852-0.73828-3.207-2.1211-0.21484-2.9453 4.6523-2.9609 4.082-3.7734-2.0156-2.875-1.4648-3.7188 1.6914-3.6836 2.6992-0.57031 5.3516-1.3438 7.9375-2.3125 0.34375 1.9023-2.1719 1.5859-2.2656 3.6055 3.4805-0.95703 7.1172-1.2305 10.703-0.80469-3.1953 6.8516-10.77 2.3398-14.273 6.7266z"/>
  <path d="m362.39 240.47c2.6562 8.4805 5.0859 16.242 7.5156 24v0.003906c-0.17578-6.5898-1.4414-13.105-3.7422-19.281-0.39453-1.1719-2.0781-2.5625 0.13672-3.4688 1.9492-0.79688 2.375 1.1094 2.8867 2.2656l0.003906-0.003906c1.3945 5.1719 3.2812 10.195 5.6328 15.008-3.3789 2.8672-1.0625 6.6953-1.7539 9.9961-0.37891 1.8086-1.9805 1.1719-2.8281 0.17578-1.0586-1.1641-1.9023-2.5078-2.4961-3.9648-2.2031-6.0664-4.332-12.164-6.2617-18.324-1.0547-2.1172-0.69141-4.6641 0.90625-6.4062z"/>
  <path d="m392.93 234.28c0.94922-5.3203-0.49609-9.8594 0.42188-14.379 0.23438-1.1562-1.2383-3.0156 0.91406-3.2422 1.5742-0.16406 2.0273 1.7227 2.3125 3.0312 0.90234 4.6133 2.4688 9.0742 4.6445 13.242 0.71484 1.3008 1.5977 2.5117 2.7227 4.2539-4.1328-0.75391-5.1484-4.2539-7.582-6.875-0.11719 1.3477-0.007813 2.707 0.32422 4.0234 0.66016 0.81641 0.93359 1.8828 0.74219 2.918-0.1875 1.0352-0.82031 1.9375-1.7305 2.4648-1.9844 0.49219-4-0.66016-4.5859-2.6133-2.3867-3.6367-4.6133-7.375-7.0469-10.977-0.80469-1.1875-1.332-2.1914 0.058594-3.0742 1.5742-1 2.4844 0.79688 2.7383 1.4844v-0.003906c1.5977 3.4922 3.6367 6.7695 6.0664 9.7461z"/>
  <path d="m534.12 166.22c1.6328-0.49609 3.4023-0.082031 4.6484 1.0859 1.2422 1.168 1.7656 2.9102 1.375 4.5703-0.3125 1.5195-0.96484 2.9727-1.2109 4.5-0.59766 3.7383-2.1914 4.9453-4.8047 1.6172-2.2617-2.8828-5.5742-1.3945-8.2422-2.5586v-0.003906c-1.3438-0.30469-2.4531-1.2422-2.9727-2.5195-0.23828-1.3633 1.4219-1.5859 2.5078-2.1172 3.1172-1.5312 6.1523-3.2227 8.6992-4.5742z"/>
  <path d="m425.18 394.59c-4.0078-5.1172-7.3047-9.3203-10.598-13.531-0.58594-0.75-1.9258-1.4102-0.75781-2.5469 1.2305-1.1953 2.3555-0.29297 3.1211 0.67578 4.1055 5.1875 8.1211 10.449 12.215 15.648l0.007813-0.003906c0.82812 0.69141 1.1055 1.8438 0.67969 2.8359-0.83203 1.3203-1.8086-0.12109-2.7305-0.15625-7.7461-0.28516-13.293-5.5977-19.84-8.6172-1.0469-0.48438-1.8047-1.3594-0.96094-2.4648l-0.003906 0.003906c0.35156-0.40625 0.85547-0.64844 1.3906-0.67188s1.0586 0.17188 1.4453 0.54297c1.8828 1.2617 3.7656 2.5312 5.5703 3.9023 3.0352 2.3672 6.6484 3.8789 10.461 4.3828z"/>
  <path d="m424 362.48c-0.86328 2.4258-1.8281 2.3164-2.6367 2.3281-9.0273-0.039063-17.883-2.4453-25.688-6.9727-1.5156-0.76563-2.5664-2.2188-2.8164-3.8984 0.19141-0.46875 0.57422-0.82812 1.0508-0.99219 1.6758 0.80469 4.4492 0.054688 5.0117 2.168 0.6875 1.9336 2.4648 3.2656 4.5117 3.3828 0.26953-0.29688 0.47656-0.65234 0.59766-1.0352-0.19922-1.7148-2.5977-3.7812-0.050781-5.0195 2.2266-1.0859 3.4922 1.3164 4.1797 2.9766 2.9219 7.0273 8.6523 8.3047 15.84 7.0625z"/>
  <path d="m379.06 329.5c-3.6211 0.68359-7.3711 0.12891-10.641-1.5742-3.2695-1.6992-5.8711-4.4531-7.3906-7.8125-0.39453-0.77344-1.1797-1.543-0.375-2.3281 2.0625-2.0078 4.207 2.2734 4.6836 0.94531 1.5273-4.2578 3.0898-1.6562 4.1367-0.23437h0.003907c2.8945 3.9219 6.0977 7.5977 9.582 11.004z"/>
  <path d="m466.36 397.09c1.7305 1.0312 7.7695-2.9219 5.1289 4.4258 1.0078 0.37109 2.082 0.53906 3.1562 0.49219 0.88672 0.18359 1.5078 0.98828 1.4609 1.8906-0.20703 0.59375-0.62109 1.0898-1.1641 1.3984-4.3398-2.3086-8.3789 1.3359-12.641 0.59766v0.003906c-1.2227 0.19922-2.4297-0.44141-2.9414-1.5703-0.19922-0.59375-0.10938-1.2461 0.23828-1.7656 0.34766-0.52344 0.91797-0.85156 1.543-0.89844 0.42188-0.089844 0.79688-0.34375 1.0352-0.70703 0.027344-3.6172 0.007813-3.6172 4.1836-3.8672z"/>
  <path d="m468.41 312.65c-6.4531-0.92578-12.426-3.9453-17-8.5898-1.2344-1.2383-2.3125-2.625-3.2109-4.125-0.21484-0.83203-0.03125-1.7188 0.49609-2.3984 0.3125-0.33203 0.75781-0.49609 1.207-0.45312 0.44922 0.042968 0.85547 0.29687 1.0938 0.67969 2.6602 2.2812 5.6992 4.082 8.9766 5.3164 1.3711 0.72266 3.5312 1.1055 2.0938 3.7617-0.78906 1.4609 0.9375 1.7461 1.9414 2.043h0.003906c2.1133 0.19531 3.8789 1.707 4.3984 3.7656z"/>
  <path d="m420.93 434.2c-5.6914-3.1914-11.289-6.5703-17.102-9.5273h-0.003906c-8.2578-5.168-17.199-9.1523-26.562-11.836-1.3398-0.37891-2.7461-0.43359-4.1133-0.16797-0.76172 0.20312-0.65234 2.6055-1.9805 1.043-0.29297-0.53516-0.33594-1.1758-0.11328-1.7422 0.21875-0.57031 0.68359-1.0156 1.2617-1.2109 1.6445-0.60547 3.4531-0.60156 5.0977 0.007812 11.148 2.5273 20.352 9.0977 30.207 14.293 4.7305 2.4961 9.2344 5.4219 13.84 8.1562z"/>
  <path d="m403.56 293.07c-9.2188-0.41797-15.574-6.1602-21.754-12.066-1.7617-1.6836 0.28516-2.9961 1.2344-4.3672 1.4883-2.1484 2.5273-0.375 3.3047 0.45312h0.007813c1.9219 1.7891 3.5625 3.8594 4.8672 6.1367 2.4727 4.9297 6.9844 8.5273 12.34 9.8438z"/>
  <path d="m599.43 163.09c-4.4609 2.4609-9.3477 4.0469-14.402 4.6758-7.8555 2.4688-15.863 4.4336-23.973 5.8828 12.316-5.1367 25.25-8.6484 38.469-10.449z"/>
  <path d="m424.21 419.77c-6.1914-2.2656-11.641-6.1914-15.746-11.348-2.2773-2.1523-4.1055-4.7773-6.1797-7.1562-0.71875-0.82422-2.4648-1.4258-0.77344-2.7227 1.25-0.96094 2.2734 0.10938 3.0742 1.0195h-0.003907c4.0586 5.0273 8.4023 9.8203 13 14.355 2.3164 1.8242 4.5312 3.7773 6.6289 5.8516z"/>
  <path d="m353.69 371.79c-0.21875 0.69141-0.72266 1.2578-1.3789 1.5586-0.66016 0.30078-1.418 0.30469-2.082 0.019531-4.0977-1.4375-7.5898-4.2109-9.9141-7.875-0.54297-1.6641-0.3125-3.4805 0.625-4.957 0.47656-1.4727 1.8438-0.94922 3.0938-0.62891 3.3203 0.84375-0.09375 1.5039-0.13672 2.1602-0.23047 3.4336 2.1094 6.5117 5.4805 7.2109 1.7266 0.19531 3.293 1.1055 4.3125 2.5117z"/>
  <path d="m467.9 160.4c-3.75 0.82031-7.5469-1.1719-9-4.7227-2.8672-4.0391-4.3242-8.9102-4.1484-13.859-0.12109-0.71484 0.089844-1.4453 0.57422-1.9844 0.48047-0.54297 1.1836-0.83594 1.9062-0.79688 1.3047 0.125 1.3945 1.1562 1.1719 2.3906-0.87891 3.7734-0.41016 7.7344 1.3242 11.199 1.7344 3.4648 4.625 6.2148 8.1719 7.7734z"/>
  <path d="m483 427.82c-3.5977-1.6562-6.4141 0.99219-9.5273 0.78516-1.5508-0.10547-3.5547 0.48047-4.1289-1.3281-0.97656-3.0859 2.9219-2.9023 3.7969-4.8906 0.97266-2.2109 3.2695-0.32422 3.3164-0.17187 1.0273 3.4727 3.6992 2.7539 6.1914 2.6758 1.0977-0.125 2.0938 0.64844 2.25 1.7422 0.11328 1.7617-1.4492 0.84766-1.8984 1.1875z"/>
  <path d="m309.58 359.23c7.1836 8.5938 10.891 18.082 18.695 26.621-7.2461-4.332-18.164-19.969-18.695-26.621z"/>
  <path d="m406.93 312.25c1.293-2.7383-0.55078-8.8906 6.1484-5.5859 0.51953 0.10547 1.0508 0.10547 1.5664 0.003907 1.9961 0.023437 5.1641-0.80078 5.1016 1.8945-0.066407 2.8438-3.7148 2.9062-5.5078 2.168h0.003906c-2.5312-0.88672-5.3438-0.30469-7.3125 1.5195z"/>
  <path d="m297.97 412.98c1.1211 0.097656 3.1758-0.8125 3.1016 0.78125h-0.003906c0.41406 3.1992 2.4336 5.9609 5.3555 7.3242-5.8828 1.3398-7.9805-0.89062-8.3125-8.2695z"/>
  <path d="m409.33 397.17c-5.7383-1.4883-11.207-3.8555-16.223-7.0117 5.8086 1.2617 11.32 3.6445 16.223 7.0117z"/>
  <use x="70" y="644" xlink:href="#s"/>
  <use x="90.550781" y="644" xlink:href="#d"/>
  <use x="104.359375" y="644" xlink:href="#c"/>
  <use x="123.347656" y="644" xlink:href="#b"/>
  <use x="142.242188" y="644" xlink:href="#a"/>
  <use x="155.628906" y="644" xlink:href="#c"/>
  <use x="174.617188" y="644" xlink:href="#j"/>
  <use x="204.410156" y="644" xlink:href="#i"/>
  <use x="224.453125" y="644" xlink:href="#f"/>
  <use x="252.453125" y="644" xlink:href="#h"/>
  <use x="271.550781" y="644" xlink:href="#b"/>
  <use x="290.445312" y="644" xlink:href="#a"/>
  <use x="303.828125" y="644" xlink:href="#f"/>
  <use x="322.082031" y="644" xlink:href="#b"/>
  <use x="340.976562" y="644" xlink:href="#g"/>
  <use x="360.910156" y="644" xlink:href="#b"/>
  <use x="70" y="672" xlink:href="#r"/>
  <use x="82.183594" y="672" xlink:href="#d"/>
  <use x="95.992188" y="672" xlink:href="#e"/>
  <use x="115.226562" y="672" xlink:href="#q"/>
  <use x="154.152344" y="672" xlink:href="#a"/>
  <use x="167.535156" y="672" xlink:href="#p"/>
  <use x="187.46875" y="672" xlink:href="#c"/>
  <use x="216.207031" y="672" xlink:href="#o"/>
  <use x="239.640625" y="672" xlink:href="#e"/>
  <use x="258.878906" y="672" xlink:href="#n"/>
  <use x="278.8125" y="672" xlink:href="#g"/>
  <use x="308.492188" y="672" xlink:href="#m"/>
  <use x="329.015625" y="672" xlink:href="#d"/>
  <use x="342.820312" y="672" xlink:href="#e"/>
  <use x="362.058594" y="672" xlink:href="#l"/>
  <use x="371.65625" y="672" xlink:href="#c"/>
  <use x="390.648438" y="672" xlink:href="#k"/>
  <use x="407.242188" y="672" xlink:href="#a"/>
 </g>
</svg>
